<?xml version="1.0" standalone="no"?>
<!DOCTYPE svg PUBLIC "-//W3C//DTD SVG 1.1//EN" "http://www.w3.org/Graphics/SVG/1.1/DTD/svg11.dtd">
<svg xmlns="http://www.w3.org/2000/svg" width="619.5" height="204.749996" version="1.0" preserveAspectRatio="xMidYMid meet" zoomAndPan="magnify" viewBox="0 0 619.5 204.749996">
 <defs>
  <clipPath id="882604c2b1">
   <path id="svg_1" clip-rule="nonzero" d="m61,8.75391l107.98047,0l0,154.24609l-107.98047,0l0,-154.24609zm0,0"/>
  </clipPath>
  <clipPath id="a0070d8098">
   <path id="svg_2" clip-rule="nonzero" d="m0.46484,29.21484l129.53516,0l0,165.41797l-129.53516,0l0,-165.41797zm0,0"/>
  </clipPath>
 </defs>
 <g>
  <title>Layer 1</title>
  <g id="svg_3" clip-path="url(#882604c2b1)">
   <path id="svg_4" fill-rule="nonzero" d="m61.68359,18.73828c2.82813,-2.95703 6.00782,-5.35547 9.69141,-7.03515c9.41016,-4.28907 18.68359,-3.91016 27.64844,1.19921c18.36328,10.46875 36.6914,20.99219 54.98828,31.57032c7.01172,4.03906 11.91016,9.75781 13.71094,17.83203c0.57422,2.57422 0.71875,5.17969 0.71484,7.80859c-0.00781,16.10156 -0.40625,32.19922 -0.08594,48.30078c0.09375,4.8711 0.54297,9.74219 0.25391,14.6211c-0.46094,7.95312 -3.12109,14.92187 -8.78125,20.75c-4.1875,4.3164 -9.29688,6.95312 -14.74219,9.14062c-0.0664,0.02735 -0.16015,-0.01172 -0.29687,-0.03125c-0.01172,-0.22265 -0.03907,-0.45703 -0.03907,-0.6914c0,-26.34375 0.00782,-52.6875 0.02344,-79.03125c0,-3.52344 0.21875,-7.0586 -0.89062,-10.48047c-1.91016,-5.91797 -5.96485,-10.01563 -11.25391,-13.05469c-14.64453,-8.40234 -29.28125,-16.82031 -43.91797,-25.24609c-8.71484,-5.01954 -17.42578,-10.05079 -26.125,-15.08594c-0.28125,-0.16406 -0.55078,-0.34766 -0.89844,-0.56641zm0,0" fill="#676e6f"/>
  </g>
  <g id="svg_5" clip-path="url(#a0070d8098)">
   <path id="svg_6" fill-rule="nonzero" d="m129.96875,121.87891c0,12.21093 -0.00391,24.42187 -0.01172,36.63672c-0.00781,4.92578 -1.07812,9.57812 -3.9414,13.69921c-1.75391,2.52735 -3.94922,4.625 -6.59375,6.17188c-7.0586,4.14062 -14.11329,8.30078 -21.28125,12.25c-9.51563,5.23828 -19.07813,4.91016 -28.4336,-0.46484c-18.49219,-10.6211 -36.96094,-21.28907 -55.40234,-32.00782c-6.51953,-3.78515 -11.10547,-9.1875 -13.02344,-16.625c-0.60937,-2.35547 -0.79687,-4.76562 -0.80078,-7.18359c-0.01563,-22.03906 -0.01953,-44.08594 -0.00781,-66.125c0,-9.79688 4.29297,-17.23047 12.43359,-22.47656c7.47266,-4.82032 15.25781,-9.11328 23.11719,-13.2461c7.13281,-3.74609 14.24609,-3.26562 21.1914,0.77735c16.45704,9.57812 32.92188,19.1289 49.40235,28.65625c5.10156,2.95312 10.15625,6.0039 15.35156,8.78125c4.54297,2.42187 6.69922,6.27343 7.51563,11.10937c0.54296,3.2461 0.3789,6.54297 0.39843,9.8125c0.07422,10.07813 0.02735,20.15625 0.02735,30.23438l0.05859,0zm-104.51562,1.48828c10.72656,-6.2461 21.40625,-12.57422 32.03906,-18.97656c1.62109,-0.98047 1.61328,-1.50391 0.03125,-2.48047c-0.17578,-0.10938 -0.35156,-0.21094 -0.52735,-0.3125c-5.71875,-3.28125 -11.40234,-6.63282 -17.13671,-9.89063c-1.2461,-0.70703 -1.26172,-0.78125 -0.07422,-1.51562c4.67187,-2.88672 9.41406,-5.65235 14.0664,-8.56641c1.28516,-0.80469 2.39453,-0.79297 3.65235,-0.02734c1.96484,1.1875 3.96484,2.30859 5.95312,3.45703c7.20313,4.16015 14.41406,8.29297 21.64453,12.40234c1.27735,0.73047 2.04297,1.625 2.03516,3.20313c-0.03125,10.93359 -0.03125,21.87109 0,32.80859c0,1.07031 -0.41016,1.73828 -1.31641,2.28125c-4.89062,2.91797 -9.78515,5.82813 -14.68359,8.73828c-1.36328,0.8086 -1.55859,0.69531 -1.55859,-0.90625c-0.00391,-6.63281 -0.00391,-13.26953 0,-19.90625c0,-0.41015 0.01171,-0.82031 -0.01563,-1.22656c-0.08203,-1.17969 -0.41406,-1.36719 -1.48047,-0.79297c-0.75781,0.41016 -1.5,0.83984 -2.24219,1.27344c-10.0664,5.91797 -20.08203,11.91797 -30.14062,17.84765c-0.47656,0.28125 -1.05469,0.48829 -1.25,1.10938c0.21094,0.44531 0.67578,0.57422 1.05469,0.79687c6.86328,4.12891 13.90234,7.95313 20.73828,12.13282c6.21094,3.80468 12.60937,7.30078 18.97656,10.84375c4.55859,2.54297 9.43359,3.27734 14.45703,1.65234c4.24219,-1.37109 8.15235,-3.39453 11.71875,-6.07422c2.92578,-2.1914 4.51563,-5.14062 4.57422,-9.05078c0.11328,-8.31641 0.29297,-16.62891 0.26563,-24.94531c-0.02344,-10.32031 -0.17969,-20.64453 0.08593,-30.97266c0.08203,-3.19922 -0.65625,-6.17969 -2.95703,-8.58203c-1.29297,-1.34766 -2.83984,-2.33594 -4.47656,-3.19922c-8.60938,-4.54297 -16.95703,-9.54297 -25.625,-13.98437c-2.65625,-1.35938 -5.15625,-3.01563 -7.75391,-4.51563c-4.2539,-2.45703 -8.23047,-5.37109 -12.55468,-7.69922c-5.23047,-2.8164 -10.41407,-2.71093 -15.52344,0.38282c-2.72266,1.625 -5.1836,3.58593 -7.37891,5.87109c-2.94531,3.09375 -5.03125,6.64844 -5.6914,10.92187c-0.26563,1.7461 -0.32422,3.50391 -0.29688,5.26954c0.22266,12.74218 0.14453,25.48046 0.03516,38.22265c-0.01563,1.58594 -0.21485,3.1836 0.10937,4.76563c0.5,0.18359 0.86719,-0.13672 1.2461,-0.35547zm0,0" fill="#4b88c2"/>
  </g>
  <path id="svg_7" fill-rule="nonzero" d="m24.21094,123.72266c11.57031,-6.76563 23.13672,-13.51563 34.76172,-20.60157l-20.87891,-12.08593c0.20703,-0.46094 0.62891,-0.57813 0.96875,-0.78516c5.09375,-3.10937 10.21094,-6.18359 15.30469,-9.30078c0.91406,-0.5625 1.72265,-0.53125 2.63281,-0.01172c9.63672,5.55469 19.27734,11.09375 28.92578,16.62109c1.03906,0.59375 1.4961,1.4336 1.5,2.60547c0.03125,11.14453 0.07422,22.28907 0.125,33.42969c0,1.04688 -0.37109,1.75391 -1.29687,2.29688c-5.14844,3.01953 -10.27344,6.07812 -15.41016,9.12109c-0.20703,0.12109 -0.41797,0.25391 -0.63281,0.36328c-0.59766,0.3125 -0.88281,0.20313 -0.8711,-0.54297c0.03516,-1.80469 0.00782,-3.60156 0.00782,-5.41015l0,-18.1875l-34.90235,20.65234c-1.21875,-0.25391 -2.05468,-1.14844 -2.94922,-1.87891c-4.32031,-3.51562 -6.80859,-8.04687 -7.26562,-13.64062c-0.07813,-0.87891 -0.42188,-1.76172 -0.01953,-2.64453zm0,0" fill="#676e6f"/>
  <path id="svg_8" fill-rule="nonzero" d="m397.37891,113.08984l-0.94922,-28.60546c-0.07031,-4.59375 -0.17188,-9.55469 -0.30078,-14.89454c-0.11719,-5.34375 -0.13672,-11.14453 -0.05078,-17.40625l-0.35157,0c-1.26953,5.3125 -2.65625,10.75782 -4.16797,16.33594c-1.5039,5.58203 -2.92968,10.58594 -4.27734,15.01563l-7.94922,27.88672l-16.74219,0l-6.77343,-27.76563c-1.03125,-4.35937 -2.125,-9.32422 -3.26953,-14.91016c-1.15235,-5.57812 -2.16016,-11.09765 -3.02735,-16.5625l-0.22656,0c-0.24609,5.62891 -0.48828,11.27344 -0.72266,16.9336c-0.23828,5.65234 -0.43359,10.77344 -0.59765,15.36719l-1.17969,28.60546l-19.71484,0l4.87109,-80.01562l28.86328,0l5.34766,21.48437c1.09765,4.42969 2.20312,9.20313 3.30468,14.3125c1.11329,5.09766 2.06641,10.10547 2.86719,15.01563l0.47656,0c1.09766,-4.91016 2.28516,-9.99609 3.55079,-15.26172c1.26562,-5.26172 2.48828,-9.98828 3.67578,-14.17187l5.94531,-21.37891l28.26562,0l4.04688,80.01562l-20.91406,0zm0,0" fill="#4b88c2"/>
  <path id="svg_9" fill-rule="nonzero" d="m264.24219,72.29688c4.70312,1.07031 8.43359,3.40234 11.20312,7c2.76953,3.58593 4.15235,7.6914 4.15235,12.30468c0,6.82422 -2.35157,12.16797 -7.05078,16.03516c-4.70704,3.85937 -11.29297,5.78516 -19.76954,5.78516l-39.66406,0l0,-80.08594l38.41406,0c8.16797,0 14.58594,1.8164 19.24219,5.44922c4.66406,3.63672 7,8.74609 7,15.33203c0,4.70312 -1.23047,8.625 -3.69531,11.76172c-2.46094,3.14453 -5.74219,5.28515 -9.83203,6.41797zm-28.86328,-7.15625l11.25781,0c5.60156,0 8.40625,-2.3086 8.40625,-6.92579c0,-4.76953 -2.80469,-7.15625 -8.40625,-7.15625l-11.25781,0l0,14.08204zm12.96484,30.33203c5.60156,0 8.40625,-2.34375 8.40625,-7.03516c0,-2.42578 -0.73828,-4.28125 -2.21484,-5.57422c-1.47657,-1.28515 -3.58594,-1.93359 -6.31641,-1.93359l-12.83984,0l0,14.54297l12.96484,0zm0,0" fill="#4b88c2"/>
  <path id="svg_10" fill-rule="nonzero" d="m291.17578,33.33594l22.26563,0l0,80.08594l-22.26563,0l0,-80.08594zm0,0" fill="#4b88c2"/>
  <path id="svg_11" fill-rule="nonzero" d="m493.85547,96.04297l0,17.46094l-64.16406,0l0,-79.87891l62.66797,0l0,17.46094l-40.29688,0l0,13.46875l35.51172,0l0,16.8789l-35.51172,0l0,14.60938l41.79297,0zm0,0" fill="#676e6f"/>
  <path id="svg_12" fill-rule="nonzero" d="m571.29297,65.72266l0,43.09375c-1.96484,0.625 -4.40625,1.3125 -7.33594,2.05859c-2.92187,0.73828 -6.09765,1.34375 -9.53515,1.80859c-3.4375,0.46875 -6.8711,0.70704 -10.30469,0.70704c-7.8086,0 -14.41406,-0.9375 -19.80469,-2.81641c-5.39453,-1.87109 -9.88672,-4.49219 -13.47266,-7.85938c-3.67187,-3.5039 -6.46875,-7.71875 -8.39062,-12.64062c-1.91406,-4.92188 -2.86719,-10.23438 -2.86719,-15.92969c0,-6.86719 1.1875,-12.875 3.57031,-18.02344c2.39063,-5.15625 5.69141,-9.46875 9.90235,-12.9414c4.22265,-3.48047 9.12109,-6.07422 14.70312,-7.78906c5.59375,-1.72266 11.59375,-2.58204 17.9961,-2.58204c5.30859,0 9.9375,0.39454 13.875,1.17579c3.94922,0.77343 6.9414,1.67187 8.97265,2.6914l-4.22265,16.86328c-2.19532,-0.9375 -4.73047,-1.71484 -7.61719,-2.33984c-2.88281,-0.63281 -6.59375,-0.94922 -11.13281,-0.94922c-4.29297,0 -8.25782,0.78516 -11.89063,2.35547c-3.63672,1.5625 -6.52344,4.02344 -8.67187,7.38672c-2.14453,3.35156 -3.21875,7.71875 -3.21875,13.09765c0,4.92188 0.97265,9.125 2.92187,12.60547c1.95703,3.47266 4.63281,6.12891 8.03906,7.96485c3.39844,1.82812 7.2461,2.74218 11.53516,2.74218c3.11719,0 5.30469,-0.23046 6.5625,-0.70312l0,-13.58984l-10.53516,0l0,-16.38672l30.92188,0zm0,0" fill="#676e6f"/>
  <path id="svg_13" fill-rule="nonzero" d="m224.60547,157.9375c-2.19531,0 -4.16797,-0.48047 -5.92969,-1.44141c-1.75781,-0.97265 -3.13672,-2.30468 -4.13281,-3.99218c-0.99609,-1.69532 -1.49219,-3.60938 -1.49219,-5.73047c0,-2.1211 0.4961,-4.02735 1.49219,-5.71485c0.99609,-1.69921 2.37891,-3.03125 4.15234,-3.99218c1.76563,-0.97266 3.7461,-1.46094 5.92578,-1.46094c1.71094,0 3.27344,0.29297 4.67969,0.86328c1.41797,0.57422 2.625,1.41797 3.625,2.53125l-2.02344,1.96875c-1.64453,-1.72266 -3.69531,-2.58203 -6.15625,-2.58203c-1.61718,0 -3.08593,0.36328 -4.39843,1.08984c-1.30078,0.72657 -2.32032,1.73047 -3.0586,3.00391c-0.73828,1.28125 -1.10937,2.71094 -1.10937,4.29297c0,1.58203 0.37109,3.01562 1.10937,4.28906c0.73828,1.27734 1.75782,2.28125 3.0586,3.00781c1.3125,0.72657 2.78125,1.08985 4.39843,1.08985c2.4336,0 4.48829,-0.8711 6.15625,-2.6211l2.02344,1.96875c-1,1.125 -2.21484,1.98438 -3.64062,2.56641c-1.42188,0.57812 -2.98438,0.86328 -4.67969,0.86328zm0,0" fill="#676e6f"/>
  <path id="svg_14" fill-rule="nonzero" d="m254.73047,157.9375c-2.20703,0 -4.19531,-0.48047 -5.96094,-1.44141c-1.77344,-0.97265 -3.16406,-2.30859 -4.17187,-4.00781c-1.01172,-1.71094 -1.51172,-3.61328 -1.51172,-5.71484c0,-2.09766 0.5,-3.9961 1.51172,-5.69922c1.00781,-1.70703 2.39843,-3.04688 4.17187,-4.00781c1.76563,-0.97266 3.75391,-1.46094 5.96094,-1.46094c2.17969,0 4.15625,0.48828 5.92578,1.46094c1.76953,0.96093 3.15234,2.29297 4.15234,3.99218c0.99219,1.6875 1.4961,3.59375 1.4961,5.71485c0,2.12109 -0.50391,4.03515 -1.4961,5.73047c-1,1.6875 -2.38281,3.01953 -4.15234,3.99218c-1.76953,0.96094 -3.74609,1.44141 -5.92578,1.44141zm0,-2.77734c1.58984,0 3.03125,-0.36328 4.30859,-1.08985c1.28907,-0.72656 2.30469,-1.73047 3.04297,-3.00781c0.73828,-1.27344 1.10938,-2.70703 1.10938,-4.28906c0,-1.58203 -0.3711,-3.01172 -1.10938,-4.29297c-0.73828,-1.27344 -1.7539,-2.27734 -3.04297,-3.00391c-1.27734,-0.72656 -2.71875,-1.08984 -4.30859,-1.08984c-1.60938,0 -3.0625,0.36328 -4.36328,1.08984c-1.29297,0.72657 -2.30469,1.73047 -3.04297,3.00391c-0.73828,1.28125 -1.10547,2.71094 -1.10547,4.29297c0,1.58203 0.36719,3.01562 1.10547,4.28906c0.73828,1.27734 1.75,2.28125 3.04297,3.00781c1.30078,0.72657 2.7539,1.08985 4.36328,1.08985zm0,0" fill="#676e6f"/>
  <path id="svg_15" fill-rule="nonzero" d="m297.80078,135.85156l0,21.83985l-2.55078,0l-13.10156,-16.28125l0,16.28125l-3.13281,0l0,-21.83985l2.57031,0l13.10156,16.28516l0,-16.28516l3.11328,0zm0,0" fill="#676e6f"/>
  <path id="svg_16" fill-rule="nonzero" d="m318.66406,157.9375c-1.64453,0 -3.23047,-0.25 -4.76562,-0.75781c-1.52344,-0.51172 -2.72266,-1.17578 -3.58594,-1.98438l1.14063,-2.42578c0.83203,0.75 1.90234,1.35938 3.20312,1.82813c1.30078,0.45703 2.63672,0.68359 4.00781,0.68359c1.81641,0 3.17188,-0.30078 4.06641,-0.91406c0.88672,-0.60547 1.33594,-1.42188 1.33594,-2.44141c0,-0.75 -0.2461,-1.35937 -0.73828,-1.83203c-0.48438,-0.46484 -1.08594,-0.82422 -1.8125,-1.07031c-0.71875,-0.2461 -1.72266,-0.52735 -3.02735,-0.84375c-1.65234,-0.39844 -2.98437,-0.79297 -3.99219,-1.17969c-1.01171,-0.39453 -1.87109,-1.00391 -2.58593,-1.82812c-0.71485,-0.81641 -1.07032,-1.92579 -1.07032,-3.32422c0,-1.16797 0.30079,-2.21875 0.91407,-3.14453c0.62109,-0.9375 1.55078,-1.6875 2.79687,-2.25c1.23828,-0.56641 2.78516,-0.84766 4.64063,-0.84766c1.28906,0 2.55468,0.17187 3.80078,0.51172c1.2539,0.32812 2.32812,0.80469 3.21875,1.42578l-1.01953,2.49609c-0.91407,-0.58593 -1.89453,-1.02343 -2.9375,-1.32031c-1.04688,-0.30078 -2.06641,-0.45703 -3.0625,-0.45703c-1.75782,0 -3.08594,0.32422 -3.97266,0.96875c-0.87891,0.64453 -1.32031,1.47656 -1.32031,2.49609c0,0.75 0.24609,1.36328 0.73828,1.82813c0.50391,0.45703 1.125,0.82031 1.86719,1.08984c0.73828,0.25781 1.73828,0.53516 3.00781,0.82813c1.63672,0.38672 2.95703,0.78125 3.95703,1.17578c1.00391,0.40234 1.86719,1.0039 2.58594,1.8125c0.71094,0.80859 1.07031,1.89844 1.07031,3.26953c0,1.15234 -0.31641,2.19922 -0.94922,3.14844c-0.625,0.9414 -1.5664,1.68359 -2.83203,2.23047c-1.26562,0.55468 -2.82812,0.82812 -4.67969,0.82812zm0,0" fill="#676e6f"/>
  <path id="svg_17" fill-rule="nonzero" d="m343.65625,138.57813l-7.49219,0l0,-2.72657l18.0625,0l0,2.72657l-7.49218,0l0,19.11328l-3.07813,0l0,-19.11328zm0,0" fill="#676e6f"/>
  <path id="svg_18" fill-rule="nonzero" d="m380.19141,157.69141l-4.71485,-6.69922c-0.58984,0.03515 -1.04687,0.05078 -1.37109,0.05078l-5.39844,0l0,6.64844l-3.13281,0l0,-21.83985l8.53125,0c2.82422,0 5.04687,0.6836 6.66406,2.04297c1.62891,1.34766 2.44531,3.20703 2.44531,5.57031c0,1.69141 -0.41796,3.12891 -1.24609,4.3086c-0.83594,1.1875 -2.02344,2.05078 -3.57031,2.58594l5.1875,7.33203l-3.39453,0zm-6.19141,-9.30078c1.97656,0 3.48828,-0.42188 4.51953,-1.26563c1.04297,-0.85547 1.56641,-2.07422 1.56641,-3.66016c0,-1.58203 -0.52344,-2.78515 -1.56641,-3.62109c-1.03125,-0.84375 -2.54297,-1.26562 -4.51953,-1.26562l-5.29297,0l0,9.8125l5.29297,0zm0,0" fill="#676e6f"/>
  <path id="svg_19" fill-rule="nonzero" d="m405.26172,157.9375c-2.91797,0 -5.1875,-0.83203 -6.80469,-2.49609c-1.61719,-1.66407 -2.42969,-4.05469 -2.42969,-7.17578l0,-12.41407l3.11329,0l0,12.29297c0,4.67578 2.05078,7.01563 6.15625,7.01563c1.99218,0 3.51953,-0.57422 4.57421,-1.72266c1.0625,-1.16016 1.60157,-2.92578 1.60157,-5.29297l0,-12.29297l3.02343,0l0,12.41407c0,3.14453 -0.8164,5.53906 -2.44531,7.1914c-1.61719,1.65235 -3.88281,2.48047 -6.78906,2.48047zm0,0" fill="#676e6f"/>
  <path id="svg_20" fill-rule="nonzero" d="m438.60938,157.9375c-2.19532,0 -4.16797,-0.48047 -5.92579,-1.44141c-1.75781,-0.97265 -3.14062,-2.30468 -4.13281,-3.99218c-1,-1.69532 -1.49609,-3.60938 -1.49609,-5.73047c0,-2.1211 0.49609,-4.02735 1.49609,-5.71485c0.99219,-1.69921 2.37891,-3.03125 4.14844,-3.99218c1.76953,-0.97266 3.74609,-1.46094 5.92969,-1.46094c1.71093,0 3.26953,0.29297 4.67578,0.86328c1.41797,0.57422 2.625,1.41797 3.625,2.53125l-2.02344,1.96875c-1.64453,-1.72266 -3.69141,-2.58203 -6.15625,-2.58203c-1.61719,0 -3.08594,0.36328 -4.39453,1.08984c-1.30469,0.72657 -2.32422,1.73047 -3.0625,3.00391c-0.73828,1.28125 -1.10938,2.71094 -1.10938,4.29297c0,1.58203 0.3711,3.01562 1.10938,4.28906c0.73828,1.27734 1.75781,2.28125 3.0625,3.00781c1.30859,0.72657 2.77734,1.08985 4.39453,1.08985c2.4375,0 4.49219,-0.8711 6.15625,-2.6211l2.02344,1.96875c-1,1.125 -2.21094,1.98438 -3.64063,2.56641c-1.42187,0.57812 -2.98047,0.86328 -4.67968,0.86328zm0,0" fill="#676e6f"/>
  <path id="svg_21" fill-rule="nonzero" d="m463.42969,138.57813l-7.49219,0l0,-2.72657l18.0625,0l0,2.72657l-7.49219,0l0,19.11328l-3.07812,0l0,-19.11328zm0,0" fill="#676e6f"/>
  <path id="svg_22" fill-rule="nonzero" d="m494.90625,157.9375c-2.20703,0 -4.19531,-0.48047 -5.96484,-1.44141c-1.76953,-0.97265 -3.16016,-2.30859 -4.16797,-4.00781c-1.01172,-1.71094 -1.51172,-3.61328 -1.51172,-5.71484c0,-2.09766 0.5,-3.9961 1.51172,-5.69922c1.00781,-1.70703 2.39844,-3.04688 4.16797,-4.00781c1.76953,-0.97266 3.75781,-1.46094 5.96484,-1.46094c2.17969,0 4.15625,0.48828 5.92578,1.46094c1.76953,0.96093 3.15235,2.29297 4.15235,3.99218c0.99218,1.6875 1.49609,3.59375 1.49609,5.71485c0,2.12109 -0.50391,4.03515 -1.49609,5.73047c-1,1.6875 -2.38282,3.01953 -4.15235,3.99218c-1.76953,0.96094 -3.74609,1.44141 -5.92578,1.44141zm0,-2.77734c1.58984,0 3.02734,-0.36328 4.30859,-1.08985c1.28907,-0.72656 2.30469,-1.73047 3.04297,-3.00781c0.73828,-1.27344 1.10938,-2.70703 1.10938,-4.28906c0,-1.58203 -0.3711,-3.01172 -1.10938,-4.29297c-0.73828,-1.27344 -1.7539,-2.27734 -3.04297,-3.00391c-1.28125,-0.72656 -2.71875,-1.08984 -4.30859,-1.08984c-1.60937,0 -3.0625,0.36328 -4.36328,1.08984c-1.29297,0.72657 -2.30469,1.73047 -3.04297,3.00391c-0.73828,1.28125 -1.10547,2.71094 -1.10547,4.29297c0,1.58203 0.36719,3.01562 1.10547,4.28906c0.73828,1.27734 1.75,2.28125 3.04297,3.00781c1.30078,0.72657 2.75391,1.08985 4.36328,1.08985zm0,0" fill="#676e6f"/>
  <path id="svg_23" fill-rule="nonzero" d="m533.80859,157.69141l-4.71484,-6.69922c-0.58594,0.03515 -1.04297,0.05078 -1.37109,0.05078l-5.39844,0l0,6.64844l-3.13281,0l0,-21.83985l8.53125,0c2.82422,0 5.04687,0.6836 6.66797,2.04297c1.625,1.34766 2.44531,3.20703 2.44531,5.57031c0,1.69141 -0.41797,3.12891 -1.25,4.3086c-0.83594,1.1875 -2.02344,2.05078 -3.57031,2.58594l5.1875,7.33203l-3.39454,0zm-6.1914,-9.30078c1.98047,0 3.48828,-0.42188 4.51953,-1.26563c1.04297,-0.85547 1.56641,-2.07422 1.56641,-3.66016c0,-1.58203 -0.52344,-2.78515 -1.56641,-3.62109c-1.03125,-0.84375 -2.53906,-1.26562 -4.51953,-1.26562l-5.29297,0l0,9.8125l5.29297,0zm0,0" fill="#676e6f"/>
  <path id="svg_24" fill-rule="nonzero" d="m563.73438,152.24219l-11.58985,0l-2.41015,5.44922l-3.21875,0l9.90234,-21.83985l3.07812,0l9.92188,21.83985l-3.27344,0l-2.41015,-5.44922zm-1.08985,-2.5l-4.69531,-10.70703l-4.71484,10.70703l9.41015,0zm0,0" fill="#676e6f"/>
 </g>
</svg>